<svg width="687" height="526" viewBox="0 0 687 526" fill="none" xmlns="http://www.w3.org/2000/svg">
<path fill-rule="evenodd" clip-rule="evenodd" d="M17.181 393.444C-33.0311 258.903 145.957 -65.9617 364.616 20.3294C583.275 106.62 718.553 350.081 669.734 457.692C620.915 565.303 67.393 527.986 17.181 393.444Z" fill="#4E3D4A"/>
<path fill-rule="evenodd" clip-rule="evenodd" d="M29.218 388.648C-19.1457 259.059 153.254 -53.8473 363.864 29.2673C574.473 112.382 704.772 346.88 657.75 450.53C610.728 554.18 77.5817 518.236 29.218 388.648Z" fill="#1A1A2E"/>
<path d="M383.886 100.912V126.64H365.853V311.026H338.373V126.64H320.339V100.912H383.886Z" fill="white"/>
<path d="M276.388 126.64H270.09V184.1H275.815C278.391 184.1 279.536 182.671 279.536 179.812V131.5C279.536 128.355 278.391 126.64 276.388 126.64ZM275.815 209.828H270.09V311.026H243.469V100.912H278.964C296.997 100.912 306.157 110.917 306.157 130.642V176.381C306.157 185.815 303.581 192.676 298.429 196.964C303.581 201.538 306.157 208.399 306.157 217.547V311.026H279.536V213.83C279.536 211.258 278.391 209.828 275.815 209.828Z" fill="white"/>
<path d="M223.417 311.026H200.517L197.941 299.019C193.934 307.881 187.636 312.169 177.617 312.169C165.881 312.169 160.729 303.879 160.729 287.013V218.118C160.729 195.821 170.747 186.101 176.472 180.384L196.796 159.515V129.213C196.796 125.211 195.079 122.924 193.075 122.924H191.071C188.781 122.924 187.35 125.497 187.35 129.499V159.515H160.729V131.214C160.729 110.346 170.747 100.054 188.209 100.054H195.079C213.112 100.054 223.417 110.346 223.417 131.214V311.026ZM191.644 287.585C192.502 287.585 195.937 287.299 196.796 286.727V195.535C196.224 195.249 187.35 202.967 187.35 217.261V279.58C187.35 285.012 187.35 287.585 191.644 287.585Z" fill="white"/>
<path d="M534.786 346.818H531.576V376.111H534.494C535.808 376.111 536.392 375.383 536.392 373.925V349.295C536.392 347.692 535.808 346.818 534.786 346.818ZM534.494 389.228H531.576V440.819H518.004V333.701H536.1C545.293 333.701 549.963 338.802 549.963 348.858V372.176C549.963 376.986 548.65 380.483 546.023 382.67C548.65 385.001 549.963 388.499 549.963 393.163V440.819H536.392V391.268C536.392 389.956 535.808 389.228 534.494 389.228Z" fill="#E94560"/>
<path d="M486.538 441.402C477.198 441.402 472.236 436.01 472.236 425.371V349.004C472.236 338.365 477.198 333.118 486.538 333.118H490.186C499.38 333.118 504.196 338.365 504.196 349.004V388.936H485.808V426.537C485.808 428.723 486.538 429.743 487.705 429.743H488.581C489.748 429.743 490.624 428.723 490.624 426.537V404.385H504.196V425.371C504.196 436.01 499.088 441.402 489.894 441.402H486.538ZM485.808 376.403H490.624V347.984C490.624 345.797 489.894 344.777 488.727 344.777H487.705C486.538 344.777 485.808 345.797 485.808 347.984V376.403Z" fill="#E94560"/>
<path d="M444.857 440.819V393.891C444.857 390.685 443.252 389.082 440.042 389.082V440.819H426.47V333.701H440.042V375.966C443.544 375.966 444.857 374.508 444.857 370.865V333.701H458.429V368.679C458.429 375.674 456.094 380.338 451.424 382.524C456.094 385.001 458.429 389.519 458.429 396.078V440.819H444.857Z" fill="#E94560"/>
<path d="M412.662 440.819H400.988L399.674 434.698C397.631 439.216 394.421 441.402 389.313 441.402C383.33 441.402 380.703 437.176 380.703 428.577V393.454C380.703 382.087 385.811 377.131 388.729 374.217L399.091 363.578V348.129C399.091 346.089 398.215 344.923 397.194 344.923H396.172C395.005 344.923 394.275 346.235 394.275 348.275V363.578H380.703V349.149C380.703 338.511 385.811 333.264 394.713 333.264H398.215C407.409 333.264 412.662 338.511 412.662 349.149V440.819ZM396.464 428.869C396.902 428.869 398.653 428.723 399.091 428.432V381.941C398.799 381.795 394.275 385.73 394.275 393.017V424.788C394.275 427.557 394.275 428.869 396.464 428.869Z" fill="#E94560"/>
<path d="M332.309 346.38C331.579 346.38 330.849 346.526 330.12 346.672V440.819H316.548V336.324C320.05 334.138 325.304 333.118 331.871 333.118C335.665 333.118 339.313 333.847 341.794 335.45C344.859 333.847 348.215 333.118 351.572 333.118C361.495 333.118 366.895 338.219 366.895 348.421V440.819H353.323V349.149C353.323 347.255 352.156 346.38 350.696 346.38C349.821 346.38 349.091 346.526 348.361 346.818C348.507 347.255 348.507 348.129 348.507 349.149V440.819H334.935V349.149C334.935 347.255 333.768 346.38 332.309 346.38Z" fill="#E94560"/>
<path d="M285.083 441.402C275.743 441.402 270.781 436.01 270.781 425.371V349.004C270.781 338.365 275.743 333.118 285.083 333.118H288.731C297.925 333.118 302.741 338.365 302.741 349.004V388.936H284.353V426.537C284.353 428.723 285.083 429.743 286.25 429.743H287.126C288.293 429.743 289.169 428.723 289.169 426.537V404.385H302.741V425.371C302.741 436.01 297.633 441.402 288.439 441.402H285.083ZM284.353 376.403H289.169V347.984C289.169 345.797 288.439 344.777 287.272 344.777H286.25C285.083 344.777 284.353 345.797 284.353 347.984V376.403Z" fill="#E94560"/>
<path d="M261.222 333.701V346.818H252.029V440.819H238.019V346.818H228.825V333.701H261.222Z" fill="#E94560"/>
<path d="M219.266 440.819H205.402V333.701H219.266V440.819Z" fill="#E94560"/>
<path d="M177.44 441.402H173.937C164.597 441.402 159.636 436.01 159.636 425.371V404.385H173.208V425.08C173.208 427.12 173.937 428.14 175.105 428.14H176.126C177.294 428.14 178.023 427.12 178.023 425.08V395.64C178.023 393.746 177.44 392.288 176.272 391.268L165.619 379.317C161.241 374.945 159.636 372.322 159.636 366.492V349.004C159.636 338.365 164.597 333.118 173.937 333.118H177.44C186.633 333.118 191.595 338.365 191.595 349.004V363.578H178.023V349.587C178.023 347.401 177.294 346.38 176.126 346.38H175.105C173.937 346.38 173.208 347.401 173.208 349.587V365.618C173.208 367.513 174.521 369.553 175.834 370.719L186.05 382.087C189.552 386.021 191.595 388.062 191.595 393.6V425.371C191.595 436.01 186.633 441.402 177.44 441.402Z" fill="#E94560"/>
</svg>
