<?xml version="1.0" encoding="UTF-8"?>
<svg width="300px" height="230px" viewBox="0 0 300 230" version="1.1" xmlns="http://www.w3.org/2000/svg" xmlns:xlink="http://www.w3.org/1999/xlink">
    <title>artsitemaker-logo</title>
    <defs>
        <path d="M0,0 L300,0 L300,230 L0,230 L0,0 Z" id="path-1"></path>
        <path d="M12.7589667,169.940984 C-8.36054828,113.27665 66.9230577,-23.5453561 158.892409,12.7975479 C250.86176,49.1404518 307.760591,151.677777 287.227046,197 C266.693502,242.322223 33.8784817,226.605317 12.7589667,169.940984 Z" id="path-2"></path>
    </defs>
    <g id="artsitemaker-logo" stroke="none" fill="none" xlink:href="#path-1">
        <g id="Path" stroke-linejoin="square">
            <path stroke="#151525" stroke-width="5" d="M157.973635,15.1225972 C200.528168,31.9385834 238.291882,64.4104589 263.148373,102.888088 C286.217917,138.599538 294.652677,174.551958 284.949855,195.968303 C276.008319,215.704315 218.32922,224.950402 150.422809,219.224291 C80.431712,213.322392 24.3242815,193.812767 15.1015466,169.067874 C4.98258164,141.918368 17.9430882,94.4679176 45.4142841,57.9956481 C76.3148933,16.970301 117.287274,-0.955155769 157.973635,15.1225972 Z" fill="#1A1A2E" fill-rule="evenodd"></path>
            <path stroke="#10101C" stroke-width="4" d="M158.157389,14.6575873 C200.813014,31.5135207 238.657308,64.0546848 263.568361,102.616776 C286.720632,138.456288 295.193299,174.570279 285.405293,196.174642 C276.333143,216.198949 218.512886,225.467664 150.380796,219.722523 C80.1951237,213.804217 23.9527791,194.247679 14.6330306,169.242496 C4.44488872,141.907386 17.4509109,94.2902954 45.0148998,57.6948288 C76.0376967,16.5072586 117.231197,-1.51493824 158.157389,14.6575873 Z"></path>
            <path stroke="#0A0A12" stroke-width="3" d="M158.341144,14.1925775 C201.097859,31.088458 239.022733,63.6989107 263.988349,102.345464 C287.223347,138.313037 295.73392,174.5886 285.860732,196.380982 C276.657968,216.693583 218.696552,225.984926 150.338784,220.220755 C79.9585354,214.286041 23.5812766,194.682592 14.1645146,169.417118 C3.90719581,141.896404 16.9587337,94.1126732 44.6155156,57.3940095 C75.7605002,16.0442163 117.17512,-2.07472071 158.341144,14.1925775 Z"></path>
            <path stroke="#050509" stroke-width="2" d="M150.761195,11.0621331 L158.524899,13.7275677 C201.382704,30.6633953 239.388159,63.3431366 264.408337,102.074153 C287.726063,138.169786 296.274542,174.60692 286.31617,196.587321 C276.982793,217.188217 218.880218,226.502188 150.296771,220.718987 C79.7219472,214.767866 23.2097742,195.117504 13.6959987,169.59174 C3.3695029,141.885422 16.4665565,93.935051 44.2161314,57.0931902 C73.5291053,18.175675 111.955078,-0.266542213 150.761195,11.0621331 Z"></path>
            <path stroke="#000000" stroke-width="1" d="M158.708654,13.2625577 C201.667549,30.2383327 239.753584,62.9873625 264.828325,101.802841 C288.228778,138.026535 296.815163,174.625241 286.771608,196.793661 C277.307617,217.68285 219.063884,227.01945 150.254758,221.217219 C79.4853589,215.24969 22.8382718,195.552416 13.2274827,169.766362 C2.83180999,141.87444 15.9743793,93.7574288 43.8167472,56.7923709 C75.206107,15.1181316 117.062967,-3.19428565 158.708654,13.2625577 Z"></path>
        </g>
        <text id="ART" font-family="Mescalito-BoldUltraCondensed, Mescalito" font-size="125" font-style="condensed" font-weight="bold" letter-spacing="10" fill="#FFFFFF">
            <tspan x="68.4375" y="136">ART</tspan>
        </text>
        <text id="SITEMAKER" font-family="Mescalito-BoldUltraCondensed, Mescalito" font-size="60" font-style="condensed" font-weight="bold" letter-spacing="5" fill="#E94560">
            <tspan x="68.87" y="190">SITEMAKER</tspan>
        </text>
    </g>
</svg>