<?xml version="1.0" encoding="UTF-8"?>
<svg width="400px" height="225px" viewBox="0 0 400 225" version="1.1" xmlns="http://www.w3.org/2000/svg" xmlns:xlink="http://www.w3.org/1999/xlink">
    <title>kazya-mazya-logo-vector</title>
    <defs>
        <path d="M0,0 L400,0 L400,225 L0,225 L0,0 Z" id="path-1"></path>
    </defs>
    <g id="kazya-mazya-logo-vector" stroke="none" fill="none" xlink:href="#path-1" fill-rule="evenodd" stroke-width="1">
        <g id="Layer_1" transform="translate(20.734, 5)">
            <path d="M358.950183,164.918382 L358.950183,170.106342 C358.250183,171.86829 357.450183,173.434467 355.550183,174.413327 C346.350183,178.916085 337.150183,183.614614 327.850183,188.019485 C322.150183,190.760294 318.850183,194.186305 312.550183,195.458824 C310.850183,195.752482 309.550183,197.318658 309.550183,199.472151 C309.550183,202.115074 309.650183,204.757996 309.550183,207.400919 C309.550183,209.064982 310.250183,209.652298 311.850183,209.652298 C312.850183,209.554412 313.850183,209.652298 314.950183,209.652298 C316.150183,209.750184 316.250183,213.31636 315.750183,214.197335 L304.450183,214.197335 C304.350183,213.512132 304.050183,209.84807 304.050183,209.162868 C304.050183,206.128401 303.850183,203.19182 304.050183,200.157353 C304.250183,197.612316 303.150183,195.948254 301.050183,194.871507 C296.750183,192.522243 294.550183,190.270864 290.150183,188.117371 C282.950183,184.397702 275.650183,180.873805 268.550183,177.154136 C266.150183,175.979504 263.750183,175.098529 261.050183,175.392187 C257.150183,175.685846 253.250183,176.07739 249.350183,176.175276 C247.450183,176.273162 245.950183,176.762592 244.650183,178.03511 C241.050183,181.656893 237.550183,185.278676 233.950183,188.90046 C231.850183,191.053952 229.450183,193.207445 227.650183,195.55671 C225.250183,198.591176 223.450183,200.842555 219.950183,202.310846 C218.450183,202.996048 217.850183,203.974908 217.950183,205.541085 C218.050183,206.324173 217.750183,207.205147 218.050183,207.890349 C218.350183,208.575551 219.150183,209.456526 219.950183,209.652298 C221.250183,209.945956 222.650183,209.750184 224.050183,209.750184 C225.350183,209.750184 225.650183,213.218474 225.050183,214.295221 L212.850183,214.295221 C212.750183,213.022702 212.450183,208.86921 212.450183,207.596691 C212.350183,204.072794 212.850183,203.387592 209.550183,202.115074 C206.750183,201.038327 205.850183,200.059467 203.450183,198.49329 C199.250183,195.654596 195.450183,192.326471 191.450183,189.292004 C185.750183,184.887132 180.050183,180.482261 174.250183,176.07739 C172.350183,174.609099 170.250183,173.140809 167.550183,173.434467 C165.750183,173.630239 163.950183,174.021783 162.250183,174.217555 C157.950183,174.706985 153.750183,175.000643 149.450183,175.490074 C144.150183,176.07739 138.850183,176.860478 133.550183,177.447794 C129.150183,177.839338 127.650183,179.111857 127.350183,183.22307 C126.950183,188.704687 126.550183,194.088419 126.150183,199.570037 C125.950183,201.723529 125.650183,203.877022 125.350183,206.030515 C124.850183,209.162868 125.450183,209.84807 128.650183,209.84807 L130.250183,209.84807 C131.450183,209.945956 131.550183,213.512132 131.050183,214.393107 L120.150183,214.393107 C120.050183,214.099449 119.750183,213.80579 119.750183,213.512132 C119.850183,210.281893 120.050183,204.072794 120.250183,200.842555 C120.350183,198.786949 120.750183,196.829228 120.950183,194.773621 C121.150183,192.326471 119.550183,190.662408 116.950183,190.662408 C108.050183,190.564522 103.150183,190.36875 94.3501826,190.270864 C84.5501826,190.172978 74.8501826,189.977206 65.0501826,189.87932 C58.0501826,189.781434 57.0501826,189.87932 50.0501826,189.87932 C47.6501826,189.87932 46.1301826,191.328033 46.1301826,193.579412 C46.1301826,195.439246 46.3501826,197.51443 46.5501826,199.374265 C46.8501826,202.408732 47.1601826,206.226287 47.5601826,209.162868 C47.6601826,209.750184 48.7001826,209.456526 49.4001826,209.652298 C50.5001826,209.84807 51.5501826,209.750184 52.7501826,209.84807 C53.9501826,209.84807 53.2501826,214.119026 52.7501826,215 C48.1112848,215 44.6321115,215 42.3126626,215 C41.8987782,215 41.2724756,215 40.433755,215 C39.735358,214.533608 40.0501826,209.750184 39.8501826,208.86921 C39.7501826,207.988235 38.6501826,195.360937 38.1501826,189.87932 C37.8501826,187.138511 38.0501826,184.299816 37.7501826,181.363235 C33.6501826,182.24421 29.0367157,184.792632 25.1367157,185.57572 C18.8367157,186.750352 12.7501826,186.746967 6.95018262,183.22307 C4.35018262,181.656893 1.92428283,178.891674 0.989303346,176.07739 C-0.210696654,172.465395 -0.659817379,165.891395 1.63018262,160.380411 C3.09018262,156.866303 7.59018262,153.107961 13.1401826,152.530433 C19.2701826,151.894174 24.2201826,153.504871 26.4201826,158.790717 C27.3201826,161.042096 27.4201826,166.093015 26.4201826,168.540165 C25.2201826,171.37886 24.0801826,173.434467 20.2801826,174.413327 C16.4801826,175.392187 12.4623008,174.593033 11.0523008,170.863576 C10.2823008,168.807969 12.9401826,168.148621 13.1401826,168.540165 C14.5401826,170.987316 16.2884133,171.450892 18.9884133,170.863576 C21.2884133,170.374146 21.953529,168.412459 22.753529,166.258967 C23.4799332,162.294272 22.753529,157.974115 16.3699332,157.069076 C12.7699332,156.746052 8.65018262,157.967626 6.95018262,161.197865 C4.95018262,165.01542 4.67018262,167.87454 5.21018262,171.878079 C6.13018262,178.681158 11.0523008,179.674896 15.241785,180.614389 C21.241785,181.201705 26.3535033,179.111857 32.0535033,177.154136 C35.5535033,175.979504 37.2301826,174.485359 36.8301826,170.863576 C36.2301826,164.990414 35.7301826,161.893704 35.2301826,156.020542 C35.0301826,154.160708 34.9301826,152.202987 34.8301826,150.343153 C34.3301826,145.253079 33.6301826,140.163006 33.2301826,135.072932 C32.9301826,130.961719 32.8301826,126.850506 32.8301826,122.739292 C32.8301826,115.495726 32.9301826,108.25216 33.2301826,101.10648 C33.5301826,94.2544577 34.0301826,87.4024357 34.4301826,80.5504136 C34.6301826,77.3201746 34.9301826,74.0899357 35.2301826,70.9575827 C35.7301826,66.0632812 36.3301826,61.1689798 36.8301826,56.2746783 C37.1301826,53.6317555 37.3301826,50.8909467 37.7301826,48.2480239 C37.8301826,47.7585937 38.7301826,46.9755055 39.3301826,46.8776195 C46.9301826,46.2903033 54.4301826,45.8008732 62.0301826,45.213557 C67.6301826,44.8220129 73.3301826,44.4304687 78.9301826,44.0389246 C84.7301826,43.6473805 90.4301826,43.2558364 96.2301826,42.8642923 C101.130183,42.5706342 106.030183,42.3748621 110.930183,42.081204 C113.430183,41.885432 116.030183,41.4938879 118.530183,41.2981158 C119.930183,41.2002298 121.430183,41.1023437 122.830183,41.2981158 C123.430183,41.3960018 124.330183,42.1790901 124.430183,42.6685202 C125.230183,48.541682 125.930183,54.3169577 126.530183,60.1901195 C126.830183,63.0288143 129.030183,64.6928768 132.030183,64.1055607 C133.430183,63.8119026 134.830183,63.7140165 136.230183,63.5182445 C140.330183,62.9309283 144.430183,62.3436121 148.530183,61.756296 C152.730183,61.1689798 156.930183,60.4837776 161.230183,59.8964614 C165.430183,59.3091452 169.530183,58.623943 173.730183,58.0366268 C177.930183,57.4493107 182.130183,56.7641085 186.430183,56.2746783 C190.730183,55.7852482 194.930183,55.4915901 199.230183,55.0021599 C205.230183,54.4148437 211.230183,53.5338695 217.230183,53.0444393 C223.630183,52.5550092 230.030183,52.4571232 236.430183,52.1634651 C240.930183,51.967693 245.530183,51.869807 250.030183,51.771921 C259.230183,51.5761489 268.430183,51.4782629 277.730183,51.3803768 C280.130183,51.3803768 280.685434,51.1245183 283.185434,50.9287462 C282.921204,50.2899832 282.789088,49.7736415 282.789088,49.3797212 C282.789088,48.9706572 282.921204,48.3230973 283.185434,47.4370415 C281.493775,47.1917233 281.17298,47.1110568 279.807516,46.8924198 C278.993609,46.7620976 278.163832,46.5827551 277.230183,46.2903033 C273.030183,45.0177849 268.930183,43.5494945 265.030183,41.787546 C261.130183,40.1234835 257.830183,37.832923 256.230183,33.8195957 C255.030183,30.7851288 254.430183,26.7033088 256.230183,24.4519301 C259.230183,20.732261 261.415096,18.9656238 267.215096,20.9233444 C268.815096,21.5106606 269.866584,23.0013835 270.166584,24.5675599 C270.466584,26.4273945 269.130183,27.5940717 267.830183,28.475046 C267.530183,28.670818 266.329089,28.7806652 266.030183,28.0835018 C265.731276,27.3863385 266.430183,27.0067555 266.830183,26.8109835 C268.430183,26.1257812 268.530183,24.6574908 267.830183,23.8744026 C267.030183,22.9934283 265.330183,22.4061121 264.130183,22.3082261 C262.030183,22.014568 259.236248,24.4617187 258.436248,26.8109835 C257.636248,29.1602482 258.430183,32.3904871 260.630183,33.2714614 C263.730183,34.6418658 267.030183,35.8164982 270.330183,36.4038143 C276.030183,37.4805607 281.530183,37.2847886 286.130183,32.6841452 C289.530183,29.2581342 292.411551,26.372655 297.411551,25.1001366 L298.874486,24.5675599 C299.411733,23.0495324 299.130183,21.3293658 299.130183,19.7631893 C296.030183,19.7631893 293.424176,19.8610754 290.524176,19.7631893 C287.924176,19.6653033 285.700645,17.7858915 285.000645,15.5345129 C284.200645,12.9894761 285.130183,10.6597886 287.230183,8.89784007 C290.230183,6.45068934 295.330183,7.52743566 296.230183,10.8555607 C296.730183,12.5196232 295.930183,14.0779627 294.530183,14.8610509 C293.630183,15.3504811 291.430183,15.456204 291.430183,14.5752298 C291.430183,13.6942555 292.308654,13.7008275 292.808654,13.6029414 C294.208654,13.3092833 294.630183,12.8787157 294.530183,11.6061973 C294.530183,10.5046434 293.048411,9.4519144 291.848411,9.25614234 C289.668411,8.96248425 287.530183,10.7597576 287.230183,12.7174782 C286.930183,14.5773128 287.130183,16.2392923 289.030183,16.6308364 C291.730183,17.1202665 295.260183,16.9147059 297.960183,17.0125919 C298.930183,17.0125919 299.074486,17.3258272 298.874486,15.5345129 C298.774486,13.3810202 298.730183,10.8555607 299.130183,8.70206801 C299.830183,4.9823989 302.260183,2.34926471 305.830183,0.675413603 C307.750183,-0.225137868 312.520183,-0.225137868 314.830183,0.675413603 C317.700183,1.80110294 320.330183,4.0035386 321.230183,6.84223346 C322.630183,11.0513327 322.935302,15.358318 322.735302,19.7631893 C322.675302,21.3195772 322.437043,23.7461122 323.573321,24.018254 C324.293819,24.1908151 325.495891,24.3204802 326.498042,24.5675599 C330.611946,25.5818406 336.839548,29.0395182 337.830183,29.949971 C337.876746,29.9927658 339.630183,31.6245039 339.630183,32.3904871 C339.260183,32.8309743 335.390183,32.3848187 325.530183,34.2544419 C325.270183,34.3719051 325.170183,34.7201746 325.530183,34.8376379 C328.930183,35.6207261 332.230183,36.4038143 336.330183,37.2847886 C335.770183,38.3713235 334.548485,39.3366198 333.748485,39.5323919 C329.148485,40.7070242 325.430183,41.3960018 320.830183,42.5706342 C319.830183,42.8642923 318.530183,43.1579504 318.130183,43.9410386 C316.630183,46.5839614 318.130183,50.0186373 321.230183,50.1165233 L325.530183,50.1165233 C328.958491,50.1734019 331.597748,50.5372021 334.431963,51.3803768 C337.266177,52.2235515 343.030183,56.0789062 343.330183,58.721829 C343.830183,62.4414982 343.830183,66.2590533 343.730183,69.9787224 C343.630183,71.6427849 343.030183,73.4047335 342.230183,74.9709099 C338.430183,82.2144761 334.330183,89.3601562 330.430183,96.5058364 C327.630183,101.59591 325.030183,106.881756 322.030183,111.873943 C320.230183,114.90841 320.030183,117.649219 321.830183,120.487914 C322.930183,122.249862 324.330183,123.913925 325.730183,125.480101 C329.730183,129.884972 333.730183,134.191958 337.830183,138.498943 C344.130183,145.253079 350.430183,151.909329 356.730183,158.565579 C358.130183,159.935983 358.930183,161.50216 359.030183,163.459881 C358.530183,164.340855 358.830183,164.634513 358.930183,164.928171 L358.950183,164.918382 Z M314.011761,44.8598636 C312.011761,45.0598636 311.150183,45.08 309.350183,45.28 C307.450183,45.58 305.550183,45.78 303.650183,46.28 C302.050183,46.68 301.750183,47.88 301.850183,49.38 C301.950183,50.68 302.49768,51.5776667 303.89768,51.5776667 L314.384894,51.0134827 C314.136138,49.8629075 314.011761,48.999976 314.011761,48.4246884 C314.011761,47.6182366 314.011761,46.4299617 314.011761,44.8598636 Z M318.442163,23.5923875 C318.442163,20.1232538 318.182939,19.3547871 314.383517,19.4211062 C311.983883,19.462992 308.140367,19.4081249 306.032703,19.6504688 C304.653443,19.8090591 303.445064,22.4193078 303.589479,23.8170003 C303.59297,24.0169698 307.857223,23.4231817 311.679651,23.4231817 C314.383517,23.4231817 316.016892,23.43088 318.442163,23.5923875 Z M293.050183,47.38 C291.350183,47.58 289.550183,47.68 287.950183,48.28 C287.250183,48.48 286.650183,48.28 286.650183,50.34 C286.650183,51.45 286.850183,51.88 287.950183,51.88 L299.04121,51.88 C298.832933,50.8880073 298.716978,50.1027002 298.693347,49.5240787 C298.669715,48.9454571 298.717369,48.0584054 298.836307,46.8629237 C295.84105,47.0951856 293.912342,47.2675444 293.050183,47.38 Z M326.840183,29.84 C326.840183,29.02 326.250183,28.45 325.450183,28.45 C324.650183,28.45 323.870183,29.4 323.870183,30 C323.870183,30.6 324.540183,31.24 325.310183,31.22 C326.080183,31.2 326.850183,30.66 326.850183,29.83 L326.840183,29.84 Z M318.250183,8.42 C318.250183,7.7 317.650183,7.11 316.980183,7.11 C316.310183,7.11 315.440183,7.61 315.440183,8.38 C315.440183,9.15 316.180183,9.73 316.900183,9.73 C317.620183,9.73 318.250183,9.14 318.250183,8.42 L318.250183,8.42 Z" id="Shape" fill="#000000" fill-rule="nonzero"></path>
            <g id="title" transform="translate(52.3641, 60.714)" fill="#FFFFFF">
                <path d="M50.9860583,70.6660423 C53.1308791,71.6386481 54.8435012,70.9901264 56.6860583,69.4660423 C62.2892907,64.8312892 67.6280318,61.1065065 74.6860583,59.4660423 C80.8875679,58.0246543 85.0331519,62.702422 87.0860583,66.6660423 C91.7060583,75.5860423 94.9860583,91.6260423 85.4860583,98.1660423 C77.6325202,103.572583 76.1160583,98.6860423 70.1860583,92.0660423 C69.0112752,90.7545643 66.7608361,90.7545643 63.0860583,93.3660423 C59.4112806,95.9775202 54.7838734,101.43634 50.6860583,97.8660423 C45.3260583,93.1960423 40.2045188,87.9772917 34.7860583,83.7660423 C31.0860583,80.8903873 29.7362237,86.0713634 31.0860583,90.1660423 C32.9982335,95.9665628 22.1016424,98.8384011 18.3674209,99.0384011 C7.36540897,99.6276544 6.29854326,93.2409706 4.98605833,83.9660423 C3.36297676,72.4962228 6.48605833,53.8660423 18.7860583,53.8660423 C31.2660583,54.6760423 40.0260583,65.6960423 50.9860583,70.6660423 Z" id="Path"></path>
                <path d="M25.9860583,9.56604227 C33.1704829,21.0842205 45.7517158,-6.49207652 54.1860583,1.46604227 C56.6710189,3.81069586 64.1332274,9.14929886 59.8860583,12.3660423 C43.9760583,24.4160423 48.0945642,24.4160423 59.3348044,34.2342077 C62.2471453,36.7780897 62.8860583,38.9365156 61.3860583,40.7365156 C57.3860583,45.5365156 50.2293982,44.4108701 46.8860583,43.4660423 C41.139209,41.8419827 26.3260583,22.9160423 23.4860583,33.8660423 C21.8006919,40.3641982 21.8715832,39.3514386 17.0860583,39.0660423 C-3.87394167,37.8160423 -0.977264774,35.1909784 2.28605833,18.9660423 C3.89477155,10.9676711 1.19700586,2.8814244 7.98605833,2.26604227 C21.6970627,1.02323158 20.9337108,1.46604227 25.9860583,9.56604227 Z" id="Path-2"></path>
                <path d="M146.805747,32.19067 C140.799404,39.673232 153.415747,40.69067 150.905747,47.99067 C148.395747,55.29067 140.137397,61.2675959 133.405747,60.29067 C126.674097,59.3137442 123.405747,55.89067 119.705747,52.09067 C117.855553,50.1904705 119.683237,46.8330879 122.205747,47.89067 C132.175747,52.07067 137.295747,46.25067 128.405747,38.69067 C124.349438,35.24121 133.874308,35.5003762 134.205747,31.99067 C134.765747,26.06067 128.815747,23.89067 124.305747,26.69067 C121.790983,28.2519425 119.135894,22.0101535 121.205747,19.69067 C131.155747,8.54067004 146.743827,9.05880895 149.005747,24.168005 C149.383402,26.69067 148.3911,30.2156743 146.805747,32.19067 Z" id="Path-3"></path>
                <path d="M175.555812,87.7706755 C169.603362,94.7271841 182.106501,95.6730922 179.619023,102.459874 C177.131545,109.246655 168.947296,114.803379 162.276047,113.895135 C155.604799,112.986891 152.365775,109.804473 148.698975,106.271627 C146.865382,104.505019 148.676666,101.383674 151.176543,102.366904 C161.057084,106.253034 166.131143,100.842202 157.320911,93.8137 C153.300998,90.6067506 162.740404,90.8476963 163.068869,87.5847363 C163.623844,82.0716386 157.727232,80.0541981 153.2577,82.6573471 C150.7655,84.108856 148.134235,78.3058893 150.185516,76.1494746 C160.046236,65.7833633 175.494447,66.2650751 177.736071,80.3120353 C178.110338,82.6573471 177.12694,85.9345297 175.555812,87.7706755 Z" id="Path-3"></path>
                <path d="M109.786058,38.5660423 C107.77304,42.4921101 105.216058,43.7260423 101.686058,40.3660423 C100.190135,38.9421608 99.0109299,37.306498 96.5860583,38.4660423 C90.6260583,41.3160423 84.2591829,45.7686157 77.3860583,40.5660423 C62.9860583,29.6660423 71.9360583,14.1960423 88.2860583,13.6660423 C97.7960583,12.3060423 114.216058,29.9260423 109.786058,38.5660423 Z" id="Path-5"></path>
                <path d="M244.686058,48.7660423 C242.311456,52.8499492 239.966058,54.0760423 236.286058,50.2660423 C234.950652,48.8834615 233.675981,47.6216177 231.486058,48.6660423 C225.636058,51.4560423 219.243353,55.9165253 212.486058,50.8660423 C197.996058,40.0360423 206.856058,24.3660423 223.286058,23.8660423 C232.556058,22.2160423 249.326058,40.7860423 244.686058,48.7660423 Z" id="Path-6"></path>
                <path d="M253.586058,72.5660423 C262.239138,71.9127555 267.586058,76.4660423 271.786058,82.4660423 C275.723564,88.0910506 281.174719,103.425009 272.386058,100.066042 C263.176058,96.5460423 269.288452,94.5836252 257.186058,100.266042 C238.316058,109.126042 224.446058,74.7660423 253.586058,72.5660423 Z" id="Path-7"></path>
                <path d="M118.486058,72.5660423 C129.926058,72.1960423 136.366058,82.1760423 140.686058,91.1660423 C142.096058,94.0760423 138.196058,102.166042 134.286058,99.6660423 C129.766058,96.6960423 128.666058,94.8360423 123.786058,98.7660423 C103.176058,112.706042 86.8460583,74.3960423 118.486058,72.5660423 L118.486058,72.5660423 Z" id="Path-8"></path>
                <path d="M189.821229,49.2616465 C185.011229,53.8116465 178.141229,60.3316465 171.121229,58.0616465 C167.913029,57.0242372 177.47522,52.9706195 176.957833,48.791723 C176.437833,44.591723 168.924115,47.9673859 163.521229,43.2616465 C154.531229,35.4316465 162.451229,17.4616465 175.021229,22.4616465 C178.842226,23.981534 171.683689,29.228456 176.957833,31.5878906 C183.042985,34.3101364 188.931229,31.4616465 187.521229,24.1616465 C187.102216,21.9922908 188.768155,21.0898023 190.721229,22.2616465 C195.221229,24.9616465 195.521229,29.5616465 196.221229,32.6616465 C196.521229,40.0616465 194.298958,45.0259569 189.821229,49.2616465 Z" id="Path-9"></path>
                <path d="M219.821229,98.2616465 C215.011229,102.811647 208.141229,109.331647 201.121229,107.061647 C197.913029,106.024237 207.47522,101.970619 206.957833,97.791723 C206.437833,93.591723 198.924115,96.9673859 193.521229,92.2616465 C184.531229,84.4316465 192.451229,66.4616465 205.021229,71.4616465 C208.842226,72.981534 201.683689,78.228456 206.957833,80.5878906 C213.042985,83.3101364 218.931229,80.4616465 217.521229,73.1616465 C217.102216,70.9922908 218.768155,70.0898023 220.721229,71.2616465 C225.221229,73.9616465 225.521229,78.5616465 226.221229,81.6616465 C226.521229,89.0616465 224.298958,94.0259569 219.821229,98.2616465 Z" id="Path-9"></path>
            </g>
        </g>
    </g>
</svg>